<?xml version="1.0" standalone="no"?>
<!DOCTYPE svg PUBLIC "-//W3C//DTD SVG 20010904//EN"
 "http://www.w3.org/TR/2001/REC-SVG-20010904/DTD/svg10.dtd">
<svg version="1.0" xmlns="http://www.w3.org/2000/svg"
 width="1085.000000pt" height="1280.000000pt" viewBox="0 0 1085.000000 1280.000000"
 preserveAspectRatio="xMidYMid meet">
<metadata>
Created by potrace 1.15, written by Peter Selinger 2001-2017
</metadata>
<g transform="translate(0.000000,1280.000000) scale(0.100000,-0.100000)"
fill="#000000" stroke="none">
<path d="M4215 12316 c-2 -6 -31 -222 -65 -481 -33 -258 -64 -487 -67 -507
l-6 -38 -1768 0 -1769 0 2 -3662 3 -3663 1283 -3 1283 -2 -6 -33 c-5 -27 -25
-179 -96 -707 -5 -41 -14 -109 -20 -150 -5 -41 -14 -111 -20 -155 -5 -44 -34
-262 -64 -485 -30 -223 -90 -682 -135 -1020 -44 -338 -83 -632 -87 -652 -5
-33 -3 -38 18 -42 24 -5 662 -91 799 -107 41 -5 117 -15 168 -22 66 -10 95
-10 97 -3 2 6 67 490 144 1076 269 2034 303 2295 305 2297 1 1 156 3 344 3
l343 1 -1 -1237 c0 -680 -3 -1240 -6 -1245 -3 -5 90 -9 213 -10 120 0 366 -2
546 -5 255 -3 329 -1 332 9 3 6 8 569 12 1250 l8 1238 284 -1 c157 0 286 -2
288 -3 1 -2 45 -329 98 -728 53 -398 150 -1129 215 -1624 66 -495 123 -925
126 -956 4 -31 9 -61 13 -66 4 -6 58 -3 141 9 74 10 314 42 533 72 218 29 400
56 403 59 3 3 -31 281 -76 619 -45 337 -90 680 -100 763 -18 138 -25 190 -49
375 -28 209 -70 524 -129 970 l-68 505 1283 3 1283 2 0 3665 0 3665 -1770 0
c-1356 0 -1770 3 -1770 12 0 24 -132 1013 -136 1017 -5 6 -136 -10 -539 -63
-187 -25 -383 -51 -435 -57 -52 -7 -98 -15 -102 -18 -4 -4 19 -202 51 -441 32
-239 56 -438 54 -442 -5 -9 -407 -11 -415 -3 -3 3 -1 29 3 58 5 28 25 176 45
327 20 151 40 304 45 340 5 36 12 89 15 118 l7 52 -32 0 c-18 0 -62 5 -99 10
-56 9 -439 59 -861 114 -64 8 -94 9 -96 2z"/>
</g>
</svg>
